# AST/ASF file generated using VICON BodyLanguage
# -----------------------------------------------
:version 1.10
:name VICON
:units
  mass 1.0
  length 0.45
  angle deg
:documentation
   .ast/.asf automatically generated from VICON data using
   VICON BodyBuilder and BodyLanguage model FoxedUp or BRILLIANT.MOD
:root
   order TX TY TZ RX RY RZ
   axis XYZ
   position 0 0 0  
   orientation 0 0 0 
:bonedata
  begin
     id 1 
     name lhipjoint
     direction 0.558404 -0.748506 0.357664 
     length 2.4234 
     axis 0 0 0  XYZ
  end
  begin
     id 2 
     name lfemur
     direction 0.34202 -0.939693 0  
     length 7.14567  
     axis 0 0 20  XYZ
    dof rx ry rz
    limits (-160.0 20.0)
           (-70.0 70.0)
           (-60.0 70.0)
  end
  begin
     id 3 
     name ltibia
     direction 0.34202 -0.939693 0   
     length 8.13956   
     axis 0 0 20   XYZ
    dof rx
    limits (-10.0 170.0)
  end
  begin
     id 4 
     name lfoot
     direction 0.0791314 -0.217412 0.972867   
     length 2.00134   
     axis -90 7.62852e-016 20   XYZ
    dof rx rz
    limits (-45.0 90.0)
           (-70.0 20.0)
  end
  begin
     id 5 
     name ltoes
     direction 1.53547e-011 -4.21922e-011 1   
     length 1.00735   
     axis -90 7.62852e-016 20   XYZ
    dof rx
    limits (-90.0 20.0)
  end
  begin
     id 6 
     name rhipjoint
     direction -0.496392 -0.78327 0.374276   
     length 2.31584  
     axis 0 0 0  XYZ 
  end
  begin
     id 7 
     name rfemur
     direction -0.34202 -0.939693 0   
     length 7.47417   
     axis 0 0 -20   XYZ
    dof rx ry rz
    limits (-160.0 20.0)
           (-70.0 70.0)
           (-70.0 60.0)
  end
  begin
     id 8 
     name rtibia
     direction -0.34202 -0.939693 0   
     length 7.69071   
     axis 0 0 -20   XYZ
    dof rx
    limits (-10.0 170.0)
 end
 begin
     id 9 
     name rfoot
     direction -0.103069 -0.28318 0.953512   
     length 2.16135  
     axis -90 -7.62852e-016 -20   XYZ
    dof rx rz
    limits (-45.0 90.0)
           (-20.0 70.0)
  end
  begin
     id 10 
     name rtoes
     direction -1.53581e-011 -4.21904e-011 1   
     length 1.07867   
     axis -90 -7.62852e-016 -20   XYZ
    dof rx
    limits (-90.0 20.0)
  end
  begin
     id 11 
     name lowerback
     direction -0.0258961 0.994776 -0.0987407   
     length 2.19412   
     axis 0 0 0   XYZ
    dof rx ry rz
    limits (-20.0 45.0)
           (-30.0 30.0)
           (-30.0 30.0)
  end
  begin
     id 12 
     name upperback
     direction 0.0402454 0.999185 0.00320666   
     length 2.18445   
     axis 0 0 0   XYZ
    dof rx ry rz
    limits (-20.0 45.0)
           (-30.0 30.0)
           (-30.0 30.0)
  end
  begin
     id 13 
     name thorax
     direction 0.0519376 0.997415 0.0496558   
     length 2.21487   
     axis 0 0 0   XYZ
    dof rx ry rz
    limits (-20.0 45.0)
           (-30.0 30.0)
           (-30.0 30.0)
  end
  begin
     id 14 
     name lowerneck
     direction -0.0921276 0.983211 0.157506   
     length 1.61201   
     axis 0 0 0   XYZ
    dof rx ry rz
    limits (-20.0 45.0)
           (-30.0 30.0)
           (-30.0 30.0)
  end
  begin
     id 15 
     name upperneck
     direction 0.0820814 0.98162 -0.172292   
     length 1.65275   
     axis 0 0 0   XYZ
    dof rx ry rz
    limits (-20.0 45.0)
           (-30.0 30.0)
           (-30.0 30.0)
  end
  begin
     id 16
     name head
     direction 0.0336554 0.996413 -0.0776455  
     length 1.66415  
     axis 0 0 0   XYZ
    dof rx ry rz
    limits (-20.0 45.0)
           (-30.0 30.0)
           (-30.0 30.0)
  end
  begin
     id 17 
     name lclavicle
     direction 0.94696 0.284418 -0.149576  
     length 3.41447  
     axis 0 0 0   XYZ
    dof ry rz
    limits (-20.0 10.0)
           (0.0 20.0)
  end
  begin
     id 18 
     name lhumerus
     direction 1 -0.000130264 -9.81312e-005   
     length 5.19964   
     axis 180 -30 -90   XYZ
    dof rx ry rz
    limits (-60.0 90.0)
           (-90.0 90.0)
           (-90.0 90.0)
  end
  begin
     id 19
     name lradius
     direction 1 -4.48961e-011 1.43854e-026   
     length 3.32189   
     axis 180 -30 -90   XYZ
    dof rx
    limits (-10.0 170.0)
  end
  begin
     id 20
     name lwrist
     direction 1 -4.48958e-011 3.1502e-026   
     length 1.66095   
     axis -1.97692e-014 90 90   XYZ
    dof ry
    limits (-180.0 0.0)
 end
  begin
     id 21 
     name lhand
     direction 1 -4.48927e-011 6.3004e-026   
     length 0.645616   
     axis -4.02019e-014 90 90   XYZ
    dof rx rz
    limits (-90.0 90.0)
           (-45.0 45.0)
  end
  begin
     id 22 
     name lfingers
     direction 1 -4.4904e-011 1.26008e-025   
     length 0.520512   
     axis -8.04039e-014 90 90   XYZ
    dof rx
    limits (0.0 90.0)
  end
  begin
     id 23
     name lthumb
     direction 0.707107 -6.34947e-011 0.707107   
     length 0.747354   
     axis -90 45 2.85299e-015   XYZ
    dof rx rz
    limits (-45.0 45.0)
           (-45.0 45.0)
  end
  begin
     id 24 
     name rclavicle
     direction -0.909391 0.383475 -0.161107   
     length 3.25176  
     axis 0 0 0   XYZ 
    dof ry rz
    limits (-10.0 20.0)
           (-20.0 0.0)
  end
  begin
     id 25 
     name rhumerus
     direction -1 -4.48965e-011 -1.81384e-027  
     length 5.6595   
     axis 180 30 90   XYZ
    dof rx ry rz
    limits (-90.0 60.0)
           (-90.0 90.0)
           (-90.0 90.0)
  end
  begin
     id 26 
     name rradius
     direction -1 -4.48996e-011 -8.09397e-027   
     length 3.37604   
     axis 180 30 90   XYZ
    dof rx
    limits (-10.0 170.0)
  end
  begin
     id 27 
     name rwrist
     direction -1 -4.48927e-011 -1.56669e-026   
     length 1.68802   
     axis 1.21142e-014 -90 -90   XYZ
    dof ry
    limits (-180.0 0.0)
  end
  begin
     id 28
     name rhand
     direction -1 -4.48912e-011 -3.13339e-026   
     length 0.824702   
     axis 1.99937e-014 -90 -90   XYZ
    dof rx rz
    limits (-90.0 90.0)
           (-45.0 45.0)
  end
  begin
     id 29
     name rfingers
     direction -1 -4.49011e-011 -6.26677e-026   
     length 0.664896   
     axis 3.99874e-014 -90 -90   XYZ
    dof rx
    limits (0.0 90.0)
  end
  begin
     id 30
     name rthumb
     direction -0.707107 -6.34931e-011 0.707107   
     length 0.954662   
     axis -90 -45 -2.85299e-015   XYZ
    dof rx rz
    limits (-45.0 45.0)
           (-45.0 45.0)
  end
:hierarchy
  begin
    root lhipjoint rhipjoint lowerback
    lhipjoint lfemur
    lfemur ltibia
    ltibia lfoot
    lfoot ltoes
    rhipjoint rfemur
    rfemur rtibia
    rtibia rfoot
    rfoot rtoes
    lowerback upperback
    upperback thorax
    thorax lowerneck lclavicle rclavicle
    lowerneck upperneck
    upperneck head
    lclavicle lhumerus
    lhumerus lradius
    lradius lwrist
    lwrist lhand lthumb
    lhand lfingers
    rclavicle rhumerus
    rhumerus rradius
    rradius rwrist
    rwrist rhand rthumb
    rhand rfingers
  end

#!OML:ASF F:\VICON\USERDATA\INSTALL\rory3\rory3.ASF
:FULLY-SPECIFIED
:DEGREES
18
root 11.7528 17.7315 -45.6882 2.97903 -7.98208 -5.81279
lowerback 7.73305 2.1574 -0.0758009
upperback 5.10566 2.84898 3.99146
thorax 0.743088 1.36251 3.96797
lowerneck -6.71567 3.87416 -13.6631
upperneck 41.4451 7.57921 3.83791
head 15.0097 1.65418 5.07918
rclavicle -2.47487e-014 7.55382e-015
rhumerus -31.2658 -14.336 -68.9007
rradius 31.8308
rwrist -13.4197
rhand -9.23251 17.9623
rfingers 7.12502
rthumb 16.7226 -11.3374
lclavicle -2.47487e-014 7.55382e-015
lhumerus -36.2861 27.0036 68.7362
lradius 39.0645
lwrist -3.09519
lhand -6.4288 32.9005
lfingers 7.12502
lthumb 19.4201 61.9507
rfemur -19.6979 -2.41802 27.3105
rtibia 41.3825
rfoot -22.4845 -7.24178
rtoes 26.5924
lfemur -30.8111 -1.62851 -7.26124
ltibia 63.1794
lfoot -12.0651 -7.16217
ltoes -8.25513
19
root 11.7573 17.7393 -45.6513 2.92198 -8.06657 -5.73443
lowerback 7.76699 2.14701 0.0263702
upperback 5.0758 2.84264 3.93898
thorax 0.701012 1.36283 3.85399
lowerneck -6.88058 3.89055 -13.7655
upperneck 41.6157 7.64486 3.90842
head 15.119 1.66063 5.15294
rclavicle -3.17062e-014 8.74653e-015
rhumerus -31.148 -14.0406 -68.815
rradius 32.3421
rwrist -13.8194
rhand -9.22897 18.5331
rfingers 7.12502
rthumb 16.726 -10.7664
lclavicle -3.17062e-014 8.74653e-015
lhumerus -36.7157 27.2138 68.7006
lradius 38.6629
lwrist -2.80874
lhand -6.91032 33.5477
lfingers 7.12502
lthumb 18.9571 62.6439
rfemur -19.438 -2.23818 27.1824
rtibia 41.2793
rfoot -22.4168 -7.04603
rtoes 28.1445
lfemur -30.7023 -1.87558 -7.2409
ltibia 62.5677
lfoot -12.4925 -6.36039
ltoes -7.68243
20
root 11.7627 17.743 -45.6146 2.88553 -8.20099 -5.57468
lowerback 7.68065 2.09734 -0.0996703
upperback 5.04356 2.76857 3.97249
thorax 0.712883 1.32276 3.9679
lowerneck -6.74981 3.96633 -13.9532
upperneck 41.5606 7.81424 3.78237
head 15.0486 1.69434 5.13883
rclavicle 2.85256e-014 3.69739e-014
rhumerus -30.9364 -13.7652 -68.5189
rradius 32.66
rwrist -14.2849
rhand -9.05831 18.6427
rfingers 7.12502
rthumb 16.8903 -10.6428
lclavicle 2.85256e-014 3.69739e-014
lhumerus -37.3356 27.8425 68.5604
lradius 38.1838
lwrist -2.79087
lhand -7.1038 34.0472
lfingers 7.12502
lthumb 18.771 63.1615
rfemur -19.2635 -2.19943 26.9813
rtibia 41.1749
rfoot -22.1867 -7.06151
rtoes 28.4793
lfemur -30.5901 -2.08092 -7.35114
ltibia 61.8293
lfoot -12.9666 -5.49466
ltoes -7.87945
21
root 11.7674 17.7444 -45.5812 2.84125 -8.42784 -5.50608
lowerback 7.61459 2.10657 -0.160949
upperback 5.04229 2.77586 4.02228
thorax 0.742445 1.32408 4.05625
lowerneck -6.5422 4.01302 -13.9117
upperneck 41.3702 7.94463 3.44456
head 14.9231 1.72951 4.98094
rclavicle 1.04362e-014 -7.15625e-015
rhumerus -30.6492 -14.1289 -68.0253
rradius 32.807
rwrist -14.8529
rhand -8.00756 18.9473
rfingers 7.12502
rthumb 17.9016 -10.2488
lclavicle 1.04362e-014 -7.15625e-015
lhumerus -37.805 28.5471 68.4069
lradius 37.5279
lwrist -3.09233
lhand -6.94042 33.8347
lfingers 7.12502
lthumb 18.9281 62.9337
rfemur -19.0527 -2.1385 26.8685
rtibia 41.0756
rfoot -22.1749 -7.00033
rtoes 28.1302
lfemur -30.4939 -2.17072 -7.36577
ltibia 61.0281
lfoot -13.4144 -4.6607
ltoes -8.42481
22
root 11.7679 17.7462 -45.5545 2.828 -8.5973 -5.59334
lowerback 7.74042 2.13273 -0.0657088
upperback 4.97303 2.82094 4.07441
thorax 0.599912 1.34992 4.04692
lowerneck -6.51654 4.0064 -13.7889
upperneck 41.3181 7.99495 3.19027
head 14.9137 1.73952 4.85506
rclavicle 2.69353e-014 5.4467e-014
rhumerus -30.4803 -14.5706 -67.6337
rradius 33.0559
rwrist -15.1769
rhand -7.38795 18.9865
rfingers 7.12502
rthumb 18.4977 -10.154
lclavicle 2.69353e-014 5.4467e-014
lhumerus -38.283 29.0813 68.2108
lradius 36.8327
lwrist -3.39626
lhand -6.88644 33.3879
lfingers 7.12502
lthumb 18.98 62.4818
rfemur -18.8535 -1.83969 26.9424
rtibia 40.984
rfoot -22.3266 -7.00119
rtoes 28.2576
lfemur -30.4499 -2.25307 -7.16016
ltibia 60.1863
lfoot -13.6623 -3.98142
ltoes -8.31527
23
root 11.7696 17.752 -45.5266 2.85836 -8.69198 -5.54278
lowerback 8.02889 2.14994 -0.0502291
upperback 4.72965 2.85932 4.05806
thorax 0.18721 1.37581 4.00084
lowerneck -6.42206 3.98941 -13.8173
upperneck 41.3362 7.96181 3.18319
head 14.9055 1.71991 4.84968
rclavicle -1.20265e-014 1.03368e-014
rhumerus -30.5798 -14.5943 -67.4264
rradius 33.504
rwrist -15.5359
rhand -7.58896 18.6708
rfingers 7.12502
rthumb 18.3043 -10.488
lclavicle -1.20265e-014 1.03368e-014
lhumerus -38.9749 29.5018 67.8215
lradius 35.8927
lwrist -3.68279
lhand -7.1004 32.3517
lfingers 7.12502
lthumb 18.7743 61.4657
rfemur -18.7525 -1.61522 26.8747
rtibia 40.8965
rfoot -22.3282 -7.03754
rtoes 28.4485
lfemur -30.4192 -2.4366 -7.12293
ltibia 59.2671
lfoot -13.6993 -3.1546
ltoes -8.12409
